<svg width="381" height="261" viewBox="0 0 381 261" fill="none" xmlns="http://www.w3.org/2000/svg">
<path d="M16.2805 259.553C16.2805 259.553 -19.6124 191.121 25.2714 141.315C70.1552 91.5103 108.757 119.104 128.342 117.72C147.928 116.336 154.21 72.7151 212.149 59.5583C270.089 46.4015 324.081 70.5823 318.247 113.977C309.539 178.755 418.211 147.321 362.395 259.837L16.2805 259.553Z" fill="#E8F3FD"/>
<path d="M332.31 246.33C336.274 241.541 340.991 234.871 336.989 234.383C333.272 233.93 330.817 239.877 329.431 244.823C329.024 244.666 328.603 244.531 328.171 244.418C329.474 238.399 329.31 230.131 326.868 231.471C324.833 232.587 324.996 239.023 325.44 243.971C323.02 243.775 320.372 244.007 317.72 244.381C317.148 240.931 315.89 236.133 313.493 236.029C311.047 235.923 313.846 241.103 316.033 244.635C315.523 244.717 315.017 244.8 314.513 244.887C313.587 243.442 312.207 241.831 310.721 241.975C309.195 242.123 311.065 243.778 312.93 245.159C306.478 246.271 300.837 247.197 299.487 243.477C296.893 236.32 288.234 223.832 279.312 223.056C270.391 222.28 247.995 245.106 233.18 242.234C182.003 232.314 156.826 260.408 156.826 260.408L232.271 259.597L344.029 260.035C344.029 260.035 340.141 251.386 332.31 246.33Z" fill="#A8D29F"/>
<path d="M198.902 259.554C179.029 239.613 133.535 270.072 89.0045 242.434C84.6102 239.706 78.9998 232.189 61.5064 233.514C57.6359 233.807 54.2635 235.216 51.3571 237.234C49.4869 232.079 46.3105 226.298 41.6496 227.466C36.4777 228.763 42.7694 235.421 47.959 240.039C47.583 240.402 47.2167 240.773 46.8616 241.152C45.6711 240.186 43.8523 239.463 41.1901 240.061C37.4128 240.911 41.6962 242.226 45.2019 243.051C39.3119 250.287 36.6689 259.344 36.6689 259.344L198.902 259.554Z" fill="#8EC181"/>
<path d="M112.303 100.904C118.603 100.904 123.71 95.8178 123.71 89.5438C123.71 83.2699 118.603 78.1838 112.303 78.1838C106.003 78.1838 100.895 83.2699 100.895 89.5438C100.895 95.8178 106.003 100.904 112.303 100.904Z" fill="#F8914C"/>
<path d="M118.564 80.0496C119.049 81.312 119.319 82.6816 119.319 84.1136C119.319 90.3872 114.211 95.4736 107.912 95.4736C105.598 95.4736 103.448 94.7856 101.65 93.608C103.292 97.8736 107.441 100.904 112.303 100.904C118.602 100.904 123.71 95.8176 123.71 89.544C123.71 85.5728 121.663 82.08 118.564 80.0496Z" fill="#DE8041"/>
<path d="M109.893 99.3566C109.742 99.3566 109.607 99.2494 109.578 99.0958C108.349 92.5838 109.253 87.5646 110.23 84.5006C111.292 81.1663 112.635 79.3967 112.692 79.3231C112.799 79.1823 113 79.1567 113.141 79.2639C113.283 79.3711 113.31 79.5711 113.202 79.7119C113.149 79.7807 107.91 86.7998 110.211 98.979C110.243 99.1534 110.129 99.3198 109.954 99.3534C109.933 99.355 109.912 99.3566 109.893 99.3566Z" fill="#0B0755"/>
<path d="M121.3 92.128C121.225 92.128 121.148 92.1008 121.086 92.048C121.021 91.9904 114.379 86.2703 102.012 87.6559C101.837 87.6751 101.676 87.5487 101.657 87.3743C101.638 87.1983 101.765 87.0399 101.94 87.0207C108.551 86.2799 113.513 87.5487 116.509 88.7439C119.771 90.0448 121.443 91.5088 121.512 91.5696C121.644 91.6864 121.657 91.8896 121.54 92.0208C121.477 92.0912 121.389 92.128 121.3 92.128Z" fill="#0B0755"/>
<path d="M114.767 97.864C114.684 97.864 114.6 97.832 114.537 97.768C114.404 97.632 111.295 94.3536 113.461 88.0544C114.153 86.0416 115.259 84.7039 116.748 84.0799C119.025 83.1247 121.342 84.1968 121.438 84.2432C121.599 84.3184 121.666 84.5103 121.591 84.6703C121.515 84.8303 121.322 84.8976 121.163 84.8224C121.142 84.8128 119.002 83.8271 116.992 84.6736C115.681 85.2256 114.698 86.4336 114.068 88.264C112.029 94.1952 114.966 97.2928 114.997 97.3248C115.121 97.4512 115.117 97.6544 114.99 97.7776C114.928 97.8336 114.847 97.864 114.767 97.864Z" fill="#0B0755"/>
<path d="M104.163 94.7712C104.086 94.7712 104.011 94.744 103.95 94.6896C103.818 94.5712 103.807 94.3696 103.924 94.2384C106.299 91.5952 107.357 88.624 107.073 85.408C106.859 83 105.929 81.3472 105.919 81.3296C105.831 81.176 105.886 80.9808 106.04 80.8928C106.194 80.8048 106.39 80.8592 106.478 81.0112C106.519 81.0816 107.479 82.7808 107.711 85.3216C107.925 87.6656 107.524 91.1888 104.404 94.664C104.338 94.7344 104.25 94.7712 104.163 94.7712Z" fill="#0B0755"/>
<path d="M69.4562 177.81C69.4562 177.81 70.8652 180.71 70.5985 181.574C70.3318 182.438 68.7444 183.545 67.6294 183.475C66.5144 183.405 66.1625 181.072 66.9273 178.808C67.6904 176.546 69.4562 177.81 69.4562 177.81Z" fill="#FFB27D"/>
<path d="M83.0953 131.699C83.0953 131.699 65.1424 152.325 65.1826 154.725C65.2228 157.125 69.6395 160.305 71.8278 160.237C73.9566 160.169 89.1316 145.936 89.0464 145.169C88.9613 144.4 83.0953 131.699 83.0953 131.699Z" fill="#EFCDA9"/>
<path d="M65.7656 177.24C64.6329 168.633 65.2081 154.473 65.2081 154.473L73.6174 155.55C73.6174 155.55 72.3305 175.038 69.9944 178.532C69.9928 178.531 66.1673 180.289 65.7656 177.24Z" fill="#EFCDA9"/>
<path d="M110.25 106.061C110.25 106.061 111.8 101.256 110.672 100.653C106.495 98.4253 106.357 94.8717 105.103 95.1181C103.85 95.3645 105.738 101.941 107.137 104.998C108.534 108.056 110.25 106.061 110.25 106.061Z" fill="#FFB27D"/>
<path d="M88.5833 252.95C88.5833 252.95 87.3671 259.315 88.5898 259.329C88.7167 259.331 102.468 259.329 102.468 259.329C102.468 259.329 104.014 257.438 101.768 257.049C99.52 256.659 95.7604 255.086 94.3979 252.129C92.9664 249.017 88.5833 252.95 88.5833 252.95Z" fill="#E4163A"/>
<path d="M71.1786 253.117C71.1786 253.117 70.0587 258.373 71.05 259.331H85.2015C85.1469 258.917 86.2635 257.546 84.3612 257.214C82.1135 256.824 78.3539 255.251 76.9915 252.294C75.5599 249.182 71.1786 253.117 71.1786 253.117Z" fill="#E4163A"/>
<path d="M97.0972 186.364C97.0972 186.364 93.6445 198.148 86.1446 220.878C78.6447 243.609 77.1794 252.66 77.1794 252.66C77.1794 252.66 76.2202 251.984 74.3758 252.006C72.6486 252.025 71.1801 253.116 71.1801 253.116C71.1801 253.116 70.952 229.408 74.4079 217.977C77.8638 206.547 75.1534 176.769 75.1534 176.769L97.0972 186.364Z" fill="#FCA56B"/>
<path d="M101.011 177.47C101.011 177.47 101.295 196.766 97.9439 220.459C94.5908 244.152 94.2004 251.771 94.2004 251.771C94.2004 251.771 93.275 251.499 91.5526 251.598C89.7933 251.701 88.5835 252.949 88.5835 252.949C88.5835 252.949 83.5096 231.136 84.885 219.278C86.2603 207.419 77.7048 178.222 77.7048 178.222L101.011 177.47Z" fill="#FFB27D"/>
<path d="M75.1516 176.769C75.1516 176.769 76.9607 206.355 73.5031 217.785L84.6887 221.84C86.6505 196.406 97.0954 186.364 97.0954 186.364L75.1516 176.769Z" fill="#C70B2C"/>
<path d="M101.011 177.47L77.7048 178.222C77.7048 178.222 84.8946 206.621 83.5193 218.478L98.7826 220.459C102.136 196.766 101.011 177.47 101.011 177.47Z" fill="#E4163A"/>
<path d="M85.4684 132.315L89.2553 135.109L94.7292 133.962C94.6537 133.464 94.2922 131.405 93.9628 129.539C93.9435 129.429 93.9226 129.318 93.9049 129.211C93.6238 127.624 93.3796 126.259 93.3796 126.259L88.2672 123.721L86.3617 122.776C86.3665 122.809 86.5095 124.537 86.5288 124.79C86.8854 129.27 85.4684 132.315 85.4684 132.315Z" fill="#FFB27D"/>
<path d="M94.345 130.906C94.2245 130.856 86.8998 128.702 86.1045 128.965C85.3092 129.227 84.8384 130.76 84.8384 130.76L96.8208 133.458C96.8192 133.456 95.8761 131.547 94.345 130.906Z" fill="#EFCDA9"/>
<path d="M74.6184 179.853C75.8603 185.494 96.5269 186.165 101.853 181.043C102.457 180.459 102.489 177.744 102.259 174.083C101.946 169.067 101.148 162.277 100.678 156.773C100.478 154.425 100.339 152.315 100.322 150.672C100.294 148.017 99.9282 145.302 99.4413 142.837C99.0879 141.049 98.2074 139.253 97.1936 137.659C95.2335 134.569 92.7898 132.248 92.7898 132.248C92.7898 132.248 86.7246 130.208 84.8368 130.76C75.7366 133.421 73.378 174.211 74.6184 179.853Z" fill="#F9DDBF"/>
<path d="M86.9125 124.869C88.0356 127.008 92.2177 128.858 93.9625 129.538C93.9432 129.427 93.9223 129.317 93.9046 129.21C93.6235 127.622 93.3793 126.257 93.3793 126.257L88.2669 123.72C87.1358 123.704 86.4482 123.987 86.9125 124.869Z" fill="#FCA56B"/>
<path d="M95.8633 125.96C95.8633 125.96 86.641 128.825 84.938 123.078C83.2349 117.331 80.8972 113.83 86.7133 111.758C92.5295 109.686 94.3289 111.541 95.3652 113.321C96.4015 115.102 98.217 125.067 95.8633 125.96Z" fill="#FFB27D"/>
<path d="M94.7545 112.454C94.7545 112.454 93.3037 119.454 91.9155 119.165C90.5274 118.874 89.2677 118.659 89.4702 120.675C89.6742 122.691 91.599 125.019 87.3188 125.376C83.0387 125.733 76.8852 114.741 78.0612 112.659C81.4545 106.654 99.658 105.13 94.7545 112.454Z" fill="#163560"/>
<path d="M92.2898 148.456C93.7229 151.55 96.3354 155.489 100.678 156.771C100.477 154.424 100.339 152.313 100.321 150.67C100.294 148.016 99.9279 145.301 99.441 142.835C99.0876 141.048 98.2071 139.251 97.1933 137.657C95.8148 138.675 94.4636 140.035 93.363 141.267C91.6021 143.237 91.1812 146.061 92.2898 148.456Z" fill="#EFCDA9"/>
<path d="M88.3521 132.246C88.3521 132.246 90.3637 130.017 93.9626 129.537C97.2129 129.104 108.686 124.464 109.104 122.979C109.411 121.885 106.479 103.521 106.445 103.926C106.445 103.926 108.505 101.782 110.942 103.097C110.942 103.097 118.94 124.571 117.579 127.441C115.489 131.849 90.82 146.509 90.3283 146.749C87.5119 148.112 88.3521 132.246 88.3521 132.246Z" fill="#F9DDBF"/>
<path d="M164.671 104.409H165.471C165.471 104.409 166.727 100.112 165.79 98.971C164.854 97.8302 162.54 96.8014 162.02 97.7518C161.499 98.7038 161.3 102.233 161.664 103.633C162.029 105.035 164.671 104.409 164.671 104.409Z" fill="#FFB27D"/>
<path d="M192.49 131.312C196.433 131.779 199.356 130.705 199.246 128.245C198.891 126.339 198.567 124.395 198.541 122.817C198.53 122.232 198.57 121.611 198.681 120.91L189.833 120.758L189.78 121.622L189.407 127.611L189.29 129.515C189.291 129.515 188.549 130.846 192.49 131.312Z" fill="#FFB27D"/>
<path d="M189.409 127.609C190.026 127.809 190.697 127.925 191.425 127.925C194.936 127.925 198.422 122.291 198.532 121.59L190.892 121.438L189.782 121.621L189.409 127.609Z" fill="#FCA56B"/>
<path d="M188.346 123.803C188.346 123.803 198.131 125.771 199.268 119.685C200.406 113.598 202.434 109.752 196.235 108.238C190.037 106.725 188.385 108.821 187.509 110.762C186.632 112.701 185.83 123.134 188.346 123.803Z" fill="#FFB27D"/>
<path d="M195.543 259.349C195.543 259.349 195.925 256.43 196.772 254.744C197.619 253.058 203.007 254.131 203.007 254.131C203.007 254.131 204.105 255.066 204.336 259.358L195.543 259.349Z" fill="#E4163A"/>
<path d="M177.357 259.354C178.623 258.584 177.747 253.16 177.747 253.16C177.747 253.16 171.848 248.459 171.036 252.058C170.225 255.656 165.431 257.272 162.703 257.714C160.82 258.018 160.938 258.824 160.972 259.355H177.357V259.354Z" fill="#E4163A"/>
<path d="M189.421 217.912C189.18 219.23 186.909 220.297 186.868 221.073C186.32 231.728 179.545 249.12 177.787 253.432C175.207 252.905 174.404 252.985 172.476 252.373C171.677 252.118 171.565 252.133 171.036 252.057C175.225 232.885 175.083 206.411 175.644 190.065C175.927 181.832 177.346 176.145 177.346 176.145C177.346 176.145 197.972 170.665 198.094 177.598C198.202 183.733 191.261 207.79 189.421 217.912Z" fill="#FFB27D"/>
<path d="M189.421 217.912L175.643 190.065C175.925 181.832 177.344 176.145 177.344 176.145C177.344 176.145 197.97 170.665 198.093 177.598C198.202 183.733 191.261 207.79 189.421 217.912Z" fill="#233862"/>
<path d="M186.868 177.225L197.236 254.262C197.236 254.262 199.36 253.465 203.007 254.131C203.007 254.131 205.677 214.732 205.412 204.612C205.146 194.494 209.466 177.499 206.592 175.628C203.716 173.758 186.868 177.225 186.868 177.225Z" fill="#FFB27D"/>
<path d="M177.344 176.146C177.344 176.146 175.925 181.834 175.643 190.066C175.082 206.411 174.743 208.68 173.822 220.995L188.989 221.085C189.029 220.31 189.182 219.229 189.423 217.91C191.263 207.79 198.204 183.731 198.094 177.597C197.971 170.664 177.344 176.146 177.344 176.146Z" fill="#E4163A"/>
<path d="M189.421 217.912L175.643 190.065C175.925 181.832 177.344 176.145 177.344 176.145C177.344 176.145 197.97 170.665 198.093 177.598C198.202 183.733 191.261 207.79 189.421 217.912Z" fill="#C70B2C"/>
<path d="M184.833 177.622L191.168 223.349C191.168 223.349 202.736 224.784 206.46 223.864C206.46 223.864 207.442 214.694 207.175 204.576C206.908 194.457 209.466 177.499 206.592 175.629C203.716 173.758 184.833 177.622 184.833 177.622Z" fill="#E4163A"/>
<path d="M229.077 122.494C229.112 122.347 229.131 122.211 229.138 122.096C229.181 121.256 229.115 119.617 228.923 118.8C228.73 117.982 225.708 116.365 224.906 116.531C224.104 116.699 224.123 119.123 223.987 120.062C223.854 120.99 225.741 123.694 225.785 123.757C225.651 124.453 224.364 131.101 222.917 135.971C222.536 137.253 222.144 138.411 221.76 139.304C221.288 140.403 209.983 134.398 201.906 130.325C201.887 130.315 201.868 130.305 201.849 130.296C199.957 129.344 197.782 130.937 198.131 133.019L199.069 138.624C200.672 141.513 218.211 149.345 227.411 146.587C227.411 146.587 229.716 143.541 229.941 137.95C230.102 133.945 229.977 128.697 229.077 122.494Z" fill="#FFB27D"/>
<path d="M185.117 106.593C185.117 106.593 187.846 106.384 191.064 104.992C193.676 103.861 196.971 105.107 198.041 105.667C198.013 105.496 197.943 105.261 197.781 105.025C197.781 105.025 198.262 105.365 198.332 105.838C198.382 105.875 198.405 105.899 198.392 105.909C198.392 105.909 198.936 105.809 199.287 105.966C199.287 105.966 199.042 105.931 198.954 106.088C198.944 106.104 198.932 106.118 198.916 106.131C202.99 108.091 203.366 114.504 202.055 115.989C200.477 117.774 198.586 121.793 198.586 121.793C198.586 121.793 197.897 120.843 198.183 119.273C198.47 117.702 197.108 117.702 195.386 116.989C193.665 116.275 195.1 114.275 193.593 113.061C192.087 111.846 188.315 112.733 186.637 111.632C184.38 110.142 185.117 106.801 185.117 106.593Z" fill="#233862"/>
<path d="M171.067 131.833C172.643 127.963 174.576 124.813 175.701 123.129C172.42 121.35 169.117 119.485 168.808 119.025C168.178 118.093 165.474 104.409 165.474 104.409C165.474 104.409 164.824 102.608 161.94 103.905C161.94 103.905 161.988 120.598 162.301 122.465C162.487 123.584 167.132 128.129 171.067 131.833Z" fill="#FFB27D"/>
<path d="M208.039 143.908C210.234 144.795 212.655 145.616 215.102 146.243C214.614 142.996 215.11 139.292 215.597 136.696C211.852 134.569 207.069 131.289 202.882 129.177C202.855 129.171 202.827 129.164 202.8 129.16C202.34 129.062 201.887 129.052 201.452 129.118C200.615 129.244 199.773 128.936 199.26 128.265L199.246 128.246C199.246 129.883 195.743 131.297 192.89 131.112C190.485 130.955 189.391 128.884 189.391 127.899C189.127 128.038 188.809 128.025 188.557 127.865C187.946 127.475 186.489 126.811 183.571 126.731C182.84 126.71 182.132 126.481 181.529 126.07C180.321 125.246 178.113 123.793 175.834 122.556C175.835 122.558 175.562 122.939 175.564 122.94C174.439 124.625 172.338 128.118 170.761 131.988C173.398 134.47 176.02 136.422 176.459 136.859C177.553 137.948 178.065 142.368 178.065 142.369C178.065 142.374 178.065 142.38 178.065 142.385C178.027 172.776 173.82 175.545 176.666 177.707C176.685 177.752 176.712 177.771 176.751 177.769C176.751 177.769 179.915 180.636 188.266 180.584C193.518 180.552 197.792 179.969 200.968 179.313C205.24 178.432 207.525 177.412 207.525 177.412C207.623 177.411 207.699 177.179 207.756 176.76C208.02 176.459 208.176 176.062 208.158 175.63C208.137 175.025 208.248 174.259 208.173 173.395C208.054 172.032 207.957 170.705 207.874 169.411C207.744 163.036 207.305 154.616 207.021 151.07C206.884 149.353 206.706 144.766 208.039 143.908Z" fill="white"/>
<path d="M208.039 143.909C210.234 144.795 212.655 145.616 215.102 146.243C214.98 145.432 214.919 144.592 214.905 143.749C212.36 143.065 209 141.939 207.446 140.453C204.768 137.893 200.591 145.465 201.77 152.505C202.948 159.544 202.1 180.254 185.233 180.462C186.158 180.544 187.166 180.589 188.266 180.581C193.518 180.549 197.792 179.966 200.968 179.31C205.241 178.429 207.525 177.409 207.525 177.409C207.623 177.408 207.699 177.176 207.757 176.757C208.02 176.456 208.176 176.059 208.158 175.627C208.137 175.022 208.248 174.256 208.173 173.392C208.054 172.029 207.957 170.702 207.874 169.408C207.744 163.033 207.305 154.613 207.021 151.067C206.884 149.353 206.706 144.766 208.039 143.909Z" fill="#E7E7E7"/>
<path d="M262.265 73.469H253.653V172.97H262.265V73.469Z" fill="#A2C5F9"/>
<path d="M257.829 72.5728H254.652V176.765H257.829V72.5728Z" fill="#C7DCF9"/>
<path d="M310.532 0H205.387V72.3088H310.532V0Z" fill="#CAE0FC"/>
<path d="M205.387 72.3088H310.532V0L205.387 72.3088Z" fill="#BBD9F9"/>
<path d="M233.436 17.5474V54.7601H282.481V17.5474H233.436ZM279.529 51.4609H236.387V20.8482H279.529V51.4609Z" fill="#B64C41"/>
<path d="M279.529 21.3199V51.4607H236.387V50.9887L233.436 53.0175V54.7599H282.481V19.2896L279.529 21.3199Z" fill="#AA413E"/>
<path d="M315.638 73.7248H310.532V0L315.638 1.7888V73.7248Z" fill="#233862"/>
<path d="M315.638 73.7249H207.183L205.387 72.3088H315.638V73.7249Z" fill="#233862"/>
<path d="M275.148 55.5553H229.424C228.606 55.5553 227.943 54.8945 227.943 54.0785C227.943 53.2641 228.606 52.6033 229.424 52.6033H275.148C275.966 52.6033 276.631 53.2641 276.631 54.0785C276.631 54.8945 275.966 55.5553 275.148 55.5553Z" fill="#EE9849"/>
<path d="M262.674 55.5552V63.7856H253.243L249.651 55.5552H262.674Z" fill="#E58638"/>
<path opacity="0.5" d="M270.402 88.7136H234.352L230.759 55.5552H273.996L270.402 88.7136Z" fill="#9ED9F0"/>
<path d="M242.721 84.6736C242.607 84.6736 242.491 84.6304 242.403 84.5424C242.228 84.368 242.228 84.0848 242.403 83.9104L267.061 59.3552C267.236 59.1808 267.52 59.1808 267.695 59.3552C267.87 59.5296 267.87 59.8128 267.695 59.9872L243.039 84.5424C242.951 84.6288 242.835 84.6736 242.721 84.6736Z" fill="white"/>
<path d="M235.602 83.8911C235.488 83.8911 235.372 83.8479 235.284 83.7599C235.109 83.5855 235.109 83.3023 235.284 83.1279L258.167 60.3391C258.343 60.1647 258.627 60.1647 258.802 60.3391C258.977 60.5135 258.977 60.7967 258.802 60.9711L235.918 83.7599C235.832 83.8463 235.718 83.8911 235.602 83.8911Z" fill="white"/>
<path d="M254.231 82.2467C254.116 82.2467 254.002 82.2035 253.913 82.1155C253.738 81.9411 253.738 81.6579 253.913 81.4835L265.802 69.6435C265.978 69.4691 266.262 69.4691 266.437 69.6435C266.612 69.8179 266.612 70.1011 266.437 70.2755L254.548 82.1155C254.461 82.2019 254.345 82.2467 254.231 82.2467Z" fill="white"/>
<path d="M260.473 84.4384C260.359 84.4384 260.243 84.3952 260.155 84.3072L235.284 59.5392C235.109 59.3648 235.109 59.0816 235.284 58.9072C235.459 58.7328 235.743 58.7328 235.918 58.9072L260.79 83.6752C260.965 83.8496 260.965 84.1328 260.79 84.3072C260.703 84.3952 260.587 84.4384 260.473 84.4384Z" fill="white"/>
<path d="M269.298 83.5889C269.183 83.5889 269.069 83.5457 268.98 83.4577L250.173 64.7281C249.998 64.5537 249.998 64.2705 250.173 64.0961C250.348 63.9217 250.632 63.9217 250.807 64.0961L269.615 82.8257C269.79 83.0001 269.79 83.2833 269.615 83.4577C269.528 83.5457 269.412 83.5889 269.298 83.5889Z" fill="white"/>
<path d="M249.586 83.2896C249.472 83.2896 249.356 83.2464 249.268 83.1584L235.284 69.232C235.109 69.0576 235.109 68.7744 235.284 68.6C235.459 68.4256 235.743 68.4256 235.918 68.6L249.903 82.5264C250.078 82.7008 250.078 82.984 249.903 83.1584C249.817 83.2448 249.702 83.2896 249.586 83.2896Z" fill="white"/>
<path d="M268.813 259.837H247.102V180.296C247.102 174.326 251.962 169.486 257.957 169.486C263.951 169.486 268.812 174.326 268.812 180.296V259.837H268.813Z" fill="#1C468A"/>
<path d="M253.015 179.034C253.015 174.382 256.477 170.539 260.976 169.914C260.018 169.638 259.006 169.488 257.959 169.488C251.964 169.488 247.104 174.328 247.104 180.298V259.838H253.015V179.034Z" fill="#365DA4"/>
<path d="M380.169 260.408H0.530198C0.237785 260.408 0 260.17 0 259.88V259.794C0 259.503 0.239391 259.266 0.530198 259.266H380.169C380.462 259.266 380.7 259.504 380.7 259.794V259.88C380.7 260.17 380.46 260.408 380.169 260.408Z" fill="#13375B"/>
</svg>
